<svg width="175" height="175" viewBox="0 0 175 175" fill="none" xmlns="http://www.w3.org/2000/svg">
<rect width="175" height="175" rx="7" fill="white"/>
<path d="M90.5 124.6C90.5 128.695 91.2605 132.615 92.5475 136.3H43.7C40.597 136.3 37.621 135.067 35.4269 132.873C33.2327 130.679 32 127.703 32 124.6V42.7C32 36.265 37.265 31 43.7 31H125.6C128.703 31 131.679 32.2327 133.873 34.4269C136.067 36.621 137.3 39.597 137.3 42.7V91.5475C133.615 90.2605 129.695 89.5 125.6 89.5V42.7H43.7V124.6H90.5ZM96.116 85.3465L80.0285 106.055L68.5625 92.2495L52.475 112.9H92.5475C94.8875 106.348 99.0995 100.673 104.54 96.5785L96.116 85.3465ZM131.45 118.75V101.2H119.75V118.75H102.2V130.45H119.75V148H131.45V130.45H149V118.75H131.45Z" fill="#04B075"/>
</svg>
