<svg width="11" height="12" viewBox="0 0 11 12" fill="none" xmlns="http://www.w3.org/2000/svg">
<path d="M10.3889 1.8C10.551 1.8 10.7064 1.86321 10.821 1.97574C10.9356 2.08826 11 2.24087 11 2.4C11 2.55913 10.9356 2.71174 10.821 2.82426C10.7064 2.93679 10.551 3 10.3889 3H9.77778L9.77594 3.0426L9.20578 10.8852C9.18383 11.188 9.04585 11.4713 8.81963 11.6781C8.5934 11.885 8.29575 12 7.98661 12H3.01278C2.70364 12 2.40599 11.885 2.17976 11.6781C1.95354 11.4713 1.81556 11.188 1.79361 10.8852L1.22344 3.0432C1.22252 3.02882 1.22211 3.01441 1.22222 3H0.611111C0.449034 3 0.293596 2.93679 0.17899 2.82426C0.0643847 2.71174 0 2.55913 0 2.4C0 2.24087 0.0643847 2.08826 0.17899 1.97574C0.293596 1.86321 0.449034 1.8 0.611111 1.8H10.3889ZM8.55372 3H2.44628L3.01339 10.8H7.98661L8.55372 3ZM6.72222 0C6.8843 0 7.03974 0.0632141 7.15434 0.175736C7.26895 0.288258 7.33333 0.44087 7.33333 0.6C7.33333 0.75913 7.26895 0.911742 7.15434 1.02426C7.03974 1.13679 6.8843 1.2 6.72222 1.2H4.27778C4.1157 1.2 3.96026 1.13679 3.84566 1.02426C3.73105 0.911742 3.66667 0.75913 3.66667 0.6C3.66667 0.44087 3.73105 0.288258 3.84566 0.175736C3.96026 0.0632141 4.1157 0 4.27778 0H6.72222Z" fill="#04B075"/>
</svg>
