<svg width="179" height="175" viewBox="0 0 179 175" fill="none" xmlns="http://www.w3.org/2000/svg">
<rect x="1" y="1" width="176.977" height="173" fill="#F9F9F9" stroke="#C0C0C0"/>
<path d="M93 129.2C93 133.89 93.871 138.379 95.345 142.6H39.4C35.8461 142.6 32.4378 141.188 29.9248 138.675C27.4118 136.162 26 132.754 26 129.2V35.4C26 28.03 32.03 22 39.4 22H133.2C136.754 22 140.162 23.4118 142.675 25.9248C145.188 28.4378 146.6 31.8461 146.6 35.4V91.345C142.379 89.871 137.89 89 133.2 89V35.4H39.4V129.2H93ZM99.432 84.243L81.007 107.961L67.875 92.149L49.45 115.8H95.345C98.025 108.296 102.849 101.797 109.08 97.107L99.432 84.243ZM139.9 122.5V102.4H126.5V122.5H106.4V135.9H126.5V156H139.9V135.9H160V122.5H139.9Z" fill="#04B075"/>
</svg>
