<svg width="17" height="15" viewBox="0 0 17 15" fill="none" xmlns="http://www.w3.org/2000/svg">
<path d="M13.1161 13.1161H7.0625V9.08036H6.05357V13.1161H3.02679V9.08036H2.01786V13.1161C2.01786 13.3837 2.12416 13.6403 2.31337 13.8295C2.50258 14.0187 2.7592 14.125 3.02679 14.125H13.1161C13.3836 14.125 13.6403 14.0187 13.8295 13.8295C14.0187 13.6403 14.125 13.3837 14.125 13.1161V9.08036H13.1161V13.1161Z" fill="#4ADAA7"/>
<path d="M16.0369 4.67638L13.9787 0.559955C13.8952 0.391861 13.7664 0.250401 13.6069 0.15148C13.4474 0.0525592 13.2634 9.96025e-05 13.0757 0H3.06715C2.87945 9.96025e-05 2.69549 0.0525592 2.53597 0.15148C2.37645 0.250401 2.24769 0.391861 2.16416 0.559955L0.105945 4.67638C0.0356715 4.81737 -0.000609549 4.97286 7.74707e-06 5.1304V6.68415C-0.000452842 6.91989 0.081649 7.14834 0.232061 7.32986C0.454358 7.58468 0.728907 7.78866 1.03705 7.92794C1.34519 8.06721 1.67971 8.13851 2.01786 8.137C2.56963 8.13786 3.10457 7.94707 3.53126 7.59723C3.95794 7.94726 4.49276 8.13857 5.04465 8.13857C5.59653 8.13857 6.13136 7.94726 6.55804 7.59723C6.98472 7.94726 7.51954 8.13857 8.07143 8.13857C8.62332 8.13857 9.15814 7.94726 9.58482 7.59723C10.0115 7.94726 10.5463 8.13857 11.0982 8.13857C11.6501 8.13857 12.1849 7.94726 12.6116 7.59723C13.0879 7.9883 13.6973 8.17947 14.3116 8.13055C14.9259 8.08163 15.4974 7.79643 15.9058 7.33491C16.058 7.15409 16.1419 6.92556 16.1429 6.68919V5.1304C16.1435 4.97286 16.1072 4.81737 16.0369 4.67638ZM6.55804 5.24642V6.01321L6.14438 6.55803C6.01739 6.73111 5.85143 6.87186 5.65994 6.96887C5.46844 7.06588 5.25679 7.11643 5.04212 7.11643C4.82746 7.11643 4.61581 7.06588 4.42431 6.96887C4.23282 6.87186 4.06686 6.73111 3.93987 6.55803L3.53126 5.99303V5.24642L4.83782 1.00893H7.0625L6.55804 5.24642ZM12.6116 5.99303L12.203 6.55803C12.076 6.73111 11.91 6.87186 11.7185 6.96887C11.5271 7.06588 11.3154 7.11643 11.1007 7.11643C10.8861 7.11643 10.6744 7.06588 10.4829 6.96887C10.2914 6.87186 10.1255 6.73111 9.99848 6.55803L9.58482 5.99303V5.24642L9.08036 1.00893H11.3252L12.6116 5.24642V5.99303Z" fill="#04B075"/>
</svg>
