<svg width="31" height="31" viewBox="0 0 31 31" fill="none" xmlns="http://www.w3.org/2000/svg">
<path fill-rule="evenodd" clip-rule="evenodd" d="M29.1136 14.999H17.8864C17.3971 14.999 17 14.551 17 13.999C17 13.447 17.3971 12.999 17.8864 12.999H29.1136C29.6029 12.999 30 13.447 30 13.999C30 14.551 29.6029 14.999 29.1136 14.999" fill="#A6ACB8"/>
<path d="M29.1136 14.999H17.8864C17.3971 14.999 17 14.551 17 13.999C17 13.447 17.3971 12.999 17.8864 12.999H29.1136C29.6029 12.999 30 13.447 30 13.999C30 14.551 29.6029 14.999 29.1136 14.999" stroke="#A6ACB8" stroke-width="0.5"/>
<path fill-rule="evenodd" clip-rule="evenodd" d="M23.9997 18.999C23.7436 18.999 23.4878 18.9097 23.2929 18.7303C22.9024 18.3721 22.9024 17.7917 23.2929 17.4337L27.586 13.499L23.2929 9.56411C22.9024 9.20616 22.9024 8.62572 23.2929 8.2677C23.6838 7.90946 24.3171 7.90946 24.7076 8.2677L29.7071 12.8501C30.0976 13.2081 30.0976 13.7885 29.7071 14.1466L24.7076 18.7289C24.5115 18.9097 24.2558 18.999 23.9997 18.999" fill="#A6ACB8"/>
<path d="M23.9997 18.999C23.7436 18.999 23.4878 18.9097 23.2929 18.7303C22.9024 18.3721 22.9024 17.7917 23.2929 17.4337L27.586 13.499L23.2929 9.56411C22.9024 9.20616 22.9024 8.62572 23.2929 8.2677C23.6838 7.90946 24.3171 7.90946 24.7076 8.2677L29.7071 12.8501C30.0976 13.2081 30.0976 13.7885 29.7071 14.1466L24.7076 18.7289C24.5115 18.9097 24.2558 18.999 23.9997 18.999" stroke="#A6ACB8" stroke-width="0.5"/>
<mask id="mask0_288_149" style="mask-type:luminance" maskUnits="userSpaceOnUse" x="0" y="0" width="14" height="31">
<path fill-rule="evenodd" clip-rule="evenodd" d="M1 1H12.9622V29.9991H1V1Z" fill="white" stroke="white" stroke-width="0.5"/>
</mask>
<g mask="url(#mask0_288_149)">
<path fill-rule="evenodd" clip-rule="evenodd" d="M3.39254 2.81244C3.06355 2.81244 2.79439 3.08438 2.79439 3.41669V25.166C2.79439 25.4233 2.96542 25.6625 3.2094 25.7483L10.3747 28.1601C10.4262 28.1769 10.4932 28.1866 10.5699 28.1866C10.8989 28.1866 11.1679 27.9148 11.1679 27.5824V5.83314C11.1679 5.57583 10.9968 5.33663 10.7528 5.25082L3.58751 2.83901C3.53604 2.82219 3.46897 2.81244 3.39254 2.81244M10.5699 29.9991C10.3139 29.9991 10.0709 29.9628 9.82824 29.8867L2.6292 27.4641C1.64968 27.1185 1 26.1966 1 25.166V3.41669C1 2.08388 2.0731 1 3.39254 1C3.64836 1 3.89133 1.03631 4.13419 1.11237L11.333 3.53506C12.3127 3.88063 12.9622 4.80257 12.9622 5.83314V27.5824C12.9622 28.9152 11.8894 29.9991 10.5699 29.9991" fill="#A6ACB8"/>
<path d="M3.2094 25.7483L3.1264 25.9842L3.12965 25.9853L3.2094 25.7483ZM10.3747 28.1601L10.295 28.3971L10.2973 28.3979L10.3747 28.1601ZM10.7528 5.25082L10.8358 5.01496L10.8326 5.01388L10.7528 5.25082ZM3.58751 2.83901L3.66727 2.60206L3.66517 2.60137L3.58751 2.83901ZM9.82824 29.8867L9.74849 30.1237L9.75342 30.1253L9.82824 29.8867ZM2.6292 27.4641L2.546 27.6999L2.54946 27.701L2.6292 27.4641ZM4.13419 1.11237L4.21395 0.87538L4.20891 0.873804L4.13419 1.11237ZM11.333 3.53506L11.4162 3.29928L11.4128 3.29812L11.333 3.53506ZM3.39254 2.56244C2.92309 2.56244 2.54439 2.94871 2.54439 3.41669H3.04439C3.04439 3.22004 3.20401 3.06244 3.39254 3.06244V2.56244ZM2.54439 3.41669V25.166H3.04439V3.41669H2.54439ZM2.54439 25.166C2.54439 25.5307 2.78369 25.8635 3.12641 25.9841L3.2924 25.5125C3.14715 25.4614 3.04439 25.3158 3.04439 25.166H2.54439ZM3.12965 25.9853L10.295 28.3971L10.4545 27.9232L3.28915 25.5114L3.12965 25.9853ZM10.2973 28.3979C10.3798 28.4247 10.4741 28.4366 10.5699 28.4366V27.9366C10.5123 27.9366 10.4726 27.9291 10.4522 27.9224L10.2973 28.3979ZM10.5699 28.4366C11.0394 28.4366 11.4179 28.0504 11.4179 27.5824H10.9179C10.9179 27.7792 10.7583 27.9366 10.5699 27.9366V28.4366ZM11.4179 27.5824V5.83314H10.9179V27.5824H11.4179ZM11.4179 5.83314C11.4179 5.46833 11.1785 5.13553 10.8358 5.01498L10.6699 5.48666C10.8151 5.53774 10.9179 5.68332 10.9179 5.83314H11.4179ZM10.8326 5.01388L3.66727 2.60207L3.50776 3.07595L10.6731 5.48776L10.8326 5.01388ZM3.66517 2.60137C3.58254 2.57437 3.48808 2.56244 3.39254 2.56244V3.06244C3.44986 3.06244 3.48953 3.07 3.50986 3.07664L3.66517 2.60137ZM10.5699 29.7491C10.3385 29.7491 10.1209 29.7165 9.90307 29.6482L9.75342 30.1253C10.021 30.2092 10.2892 30.2491 10.5699 30.2491V29.7491ZM9.90798 29.6498L2.70893 27.2271L2.54946 27.701L9.74851 30.1237L9.90798 29.6498ZM2.71238 27.2283C1.83279 26.918 1.25 26.0905 1.25 25.166H0.75C0.75 26.3026 1.46657 27.319 2.54601 27.6998L2.71238 27.2283ZM1.25 25.166V3.41669H0.75V25.166H1.25ZM1.25 3.41669C1.25 2.21958 2.21353 1.25 3.39254 1.25V0.75C1.93267 0.75 0.75 1.94817 0.75 3.41669H1.25ZM3.39254 1.25C3.62366 1.25 3.84139 1.28264 4.05946 1.35095L4.20891 0.873804C3.94126 0.78997 3.67305 0.75 3.39254 0.75V1.25ZM4.05445 1.34932L11.2533 3.77201L11.4128 3.29812L4.21393 0.875433L4.05445 1.34932ZM11.2499 3.77083C12.1296 4.08113 12.7122 4.90858 12.7122 5.83314H13.2122C13.2122 4.69656 12.4959 3.68013 11.4162 3.2993L11.2499 3.77083ZM12.7122 5.83314V27.5824H13.2122V5.83314H12.7122ZM12.7122 27.5824C12.7122 28.7796 11.7489 29.7491 10.5699 29.7491V30.2491C12.0298 30.2491 13.2122 29.0509 13.2122 27.5824H12.7122Z" fill="#A6ACB8"/>
</g>
<mask id="mask1_288_149" style="mask-type:luminance" maskUnits="userSpaceOnUse" x="1" y="0" width="20" height="12">
<path fill-rule="evenodd" clip-rule="evenodd" d="M2.03809 1H19.9614V10.9803H2.03809V1Z" fill="white" stroke="white" stroke-width="0.5"/>
</mask>
<g mask="url(#mask1_288_149)">
<path fill-rule="evenodd" clip-rule="evenodd" d="M19.0501 10.9803C18.547 10.9803 18.1387 10.5612 18.1387 10.0446V4.43082C18.1387 3.57123 17.4571 2.87129 16.6199 2.87129H2.94942C2.44639 2.87129 2.03809 2.45216 2.03809 1.93567C2.03809 1.41918 2.44639 1 2.94942 1H16.6199C18.4633 1 19.9614 2.5383 19.9614 4.43082V10.0446C19.9614 10.5612 19.5531 10.9803 19.0501 10.9803" fill="#A6ACB8"/>
<path d="M19.0501 10.9803C18.547 10.9803 18.1387 10.5612 18.1387 10.0446V4.43082C18.1387 3.57123 17.4571 2.87129 16.6199 2.87129H2.94942C2.44639 2.87129 2.03809 2.45216 2.03809 1.93567C2.03809 1.41918 2.44639 1 2.94942 1H16.6199C18.4633 1 19.9614 2.5383 19.9614 4.43082V10.0446C19.9614 10.5612 19.5531 10.9803 19.0501 10.9803" stroke="#A6ACB8" stroke-width="0.5"/>
</g>
<path fill-rule="evenodd" clip-rule="evenodd" d="M16.7002 26.999H11.9C11.4032 26.999 11 26.579 11 26.0615C11 25.5441 11.4032 25.124 11.9 25.124H16.7002C17.5269 25.124 18.2 24.4227 18.2 23.5615V17.9365C18.2 17.419 18.6032 16.999 19.1 16.999C19.5968 16.999 20 17.419 20 17.9365V23.5615C20 25.4577 18.5206 26.999 16.7002 26.999" fill="#A6ACB8"/>
<path d="M16.7002 26.999H11.9C11.4032 26.999 11 26.579 11 26.0615C11 25.5441 11.4032 25.124 11.9 25.124H16.7002C17.5269 25.124 18.2 24.4227 18.2 23.5615V17.9365C18.2 17.419 18.6032 16.999 19.1 16.999C19.5968 16.999 20 17.419 20 17.9365V23.5615C20 25.4577 18.5206 26.999 16.7002 26.999" stroke="#A6ACB8" stroke-width="0.5"/>
</svg>
